HIERARCHY
ROOT hip
{
	OFFSET 0.000000 0.000000 0.000000
	CHANNELS 6 Xposition Yposition Zposition Xrotation Zrotation Yrotation 
	JOINT abdomen
	{
		OFFSET 0.000000 3.422050 0.000000
		CHANNELS 3 Xrotation Zrotation Yrotation 
		JOINT chest
		{
			OFFSET 0.000000 8.486693 -0.684411
			CHANNELS 3 Xrotation Zrotation Yrotation 
			JOINT neck
			{
				OFFSET 0.000000 10.266162 -0.273764
				CHANNELS 3 Xrotation Zrotation Yrotation 
				JOINT head
				{
					OFFSET 0.000000 3.148285 0.000000
					CHANNELS 3 Xrotation Zrotation Yrotation 
					End Site
					{
						OFFSET 0.000000 3.148289 0.000000
					}
				}
			}
			JOINT lCollar
			{
				OFFSET 3.422053 6.707223 -0.821293
				CHANNELS 3 Yrotation Zrotation Xrotation 
				JOINT lShldr
				{
					OFFSET 3.285171 0.000000 0.000000
					CHANNELS 3 Zrotation Yrotation Xrotation 
					JOINT lForeArm
					{
						OFFSET 10.129278 0.000000 0.000000
						CHANNELS 3 Yrotation Zrotation Xrotation 
						JOINT lHand
						{
							OFFSET 8.486692 0.000000 0.000000
							CHANNELS 3 Zrotation Yrotation Xrotation 
							End Site
							{
								OFFSET 4.106464 0.000000 0.000000
							}
						}
					}
				}
			}
			JOINT rCollar
			{
				OFFSET -3.558935 6.707223 -0.821293
				CHANNELS 3 Yrotation Zrotation Xrotation 
				JOINT rShldr
				{
					OFFSET -3.148289 0.000000 0.000000
					CHANNELS 3 Zrotation Yrotation Xrotation 
					JOINT rForeArm
					{
						OFFSET -10.266159 0.000000 0.000000
						CHANNELS 3 Yrotation Zrotation Xrotation 
						JOINT rHand
						{
							OFFSET -8.349810 0.000000 0.000000
							CHANNELS 3 Zrotation Yrotation Xrotation 
							End Site
							{
								OFFSET -4.106464 0.000000 0.000000
							}
						}
					}
				}
			}
		}
	}
	JOINT lThigh
	{
		OFFSET 5.338403 -1.642589 1.368821
		CHANNELS 3 Xrotation Zrotation Yrotation 
		JOINT lShin
		{
			OFFSET -2.053232 -20.121670 0.000000
			CHANNELS 3 Xrotation Zrotation Yrotation 
			JOINT lFoot
			{
				OFFSET 0.000000 -19.300380 -1.231939
				CHANNELS 3 Xrotation Yrotation Zrotation 
				End Site
				{
					OFFSET 0.000000 -2.463878 4.653993
				}
			}
		}
	}
	JOINT rThigh
	{
		OFFSET -5.338403 -1.642589 1.368821
		CHANNELS 3 Xrotation Zrotation Yrotation 
		JOINT rShin
		{
			OFFSET 2.053232 -20.121670 0.000000
			CHANNELS 3 Xrotation Zrotation Yrotation 
			JOINT rFoot
			{
				OFFSET 0.000000 -19.300380 -1.231939
				CHANNELS 3 Xrotation Yrotation Zrotation 
				End Site
				{
					OFFSET 0.000000 -2.463878 4.653993
				}
			}
		}
	}
}
MOTION
Frames: 11
Frame Time: 0.100000
0.000000 43.528500 0.000000 0.000000 0.000000 0.000000 0.000000 0.000000 0.000000 0.000000 0.000000 0.000000 0.000000 0.000000 0.000000 0.000000 0.000000 0.000000 0.000000 0.000000 0.000000 0.000000 0.000000 0.000000 0.000000 0.000000 0.000000 0.000000 0.000000 0.000000 0.000000 0.000000 0.000000 0.000000 0.000000 0.000000 0.000000 0.000000 0.000000 0.000000 0.000000 0.000000 0.000000 0.000000 0.000000 0.000000 0.000000 0.000000 0.000000 0.000000 0.000000 0.000000 0.000000 0.000000 0.000000 0.000000 0.000000 0.000000 0.000000 0.000000 
0.000000 19.357426 -31.332008 70.992760 0.000000 0.000000 17.935436 -3.720480 -0.489910 -4.247687 -13.323292 -2.401864 -39.575241 -7.559734 0.185418 -17.881680 -17.656864 -1.142697 -9.812296 9.539762 -27.591492 -28.998617 -67.005310 -60.006493 -75.422890 -8.390165 65.393669 -21.931490 -7.932947 -44.596210 25.132580 0.798656 3.493405 -4.612937 74.604538 -85.045219 119.282082 -12.017486 68.623665 27.029995 -29.855808 -31.826202 -100.515442 33.622971 -22.262831 120.121010 -11.688261 1.673485 33.834568 7.787368 5.588654 -100.460014 -33.651691 22.241617 120.040703 11.666218 -1.661528 34.445236 -7.887252 -5.525526 
0.000000 19.415783 -31.205421 70.992760 0.000000 0.000000 17.649801 -3.720669 -0.489827 -3.036915 -13.323514 -2.402025 -40.075100 -7.559844 0.185441 -17.025856 -17.656843 -1.142701 -9.233203 9.239247 -28.090893 -28.536554 -67.499969 -59.747852 -76.931145 -8.638043 65.124535 -22.554148 -7.291796 -45.132786 24.927050 0.515902 2.994688 -4.421914 74.495079 -85.026672 118.743454 -12.196700 68.490463 26.247641 -29.254862 -31.713070 -100.006439 33.613640 -22.037121 119.716248 -11.790692 1.762992 33.834572 7.787369 5.588655 -99.952988 -33.643574 22.016043 119.638718 11.768588 -1.750394 34.445236 -7.887252 -5.525526 
0.000000 19.474140 -31.078835 70.992760 0.000000 0.000000 17.364140 -3.720856 -0.489743 -1.824510 -13.323730 -2.402191 -40.575069 -7.559953 0.185464 -16.169460 -17.656826 -1.142705 -8.656967 8.933619 -28.587034 -28.070259 -67.995712 -59.494137 -78.444756 -8.879326 64.848129 -23.182661 -6.655807 -45.676212 24.719000 0.234854 2.494805 -4.232357 74.385635 -85.009682 118.203880 -12.374734 68.355423 25.470531 -28.652132 -31.609877 -99.497475 33.602646 -21.811506 119.311111 -11.892514 1.853282 33.834568 7.787368 5.588654 -99.445961 -33.633778 21.790545 119.236359 11.870361 -1.840040 34.445232 -7.887252 -5.525526 
0.000000 19.532497 -30.952248 70.992760 0.000000 0.000000 17.078459 -3.721044 -0.489658 -0.610741 -13.323949 -2.402363 -41.075138 -7.560062 0.185489 -15.312577 -17.656801 -1.142709 -8.083654 8.622953 -29.079849 -27.599461 -68.492500 -59.245716 -79.963196 -9.113705 64.564690 -23.817013 -6.025233 -46.226444 24.508450 -0.044446 1.993767 -4.044165 74.276093 -84.994034 117.663383 -12.551558 68.218552 24.698534 -28.047823 -31.516483 -98.988548 33.589977 -21.586016 118.905602 -11.993721 1.944352 33.834568 7.787368 5.588654 -98.938957 -33.622314 21.565147 118.833672 11.971527 -1.930457 34.445232 -7.887252 -5.525526 
0.000000 19.590857 -30.825661 70.992760 0.000000 0.000000 16.792765 -3.721231 -0.489572 0.604122 -13.324160 -2.402538 -41.575283 -7.560169 0.185514 -14.455318 -17.656780 -1.142712 -7.513330 8.307333 -29.569273 -27.123835 -68.990288 -59.003014 -81.485924 -9.340897 64.274452 -24.457191 -5.400332 -46.783470 24.295416 -0.321956 1.491584 -3.857345 74.166618 -84.979866 117.121994 -12.727152 68.079865 23.931498 -27.442131 -31.432739 -98.479713 33.575642 -21.360683 118.499741 -12.094308 2.036197 33.834568 7.787368 5.588654 -98.432060 -33.609203 21.339899 118.430618 12.072083 -2.021644 34.445240 -7.887253 -5.525526 
0.000000 19.649214 -30.699074 70.992760 0.000000 0.000000 16.507063 -3.721417 -0.489485 1.819808 -13.324369 -2.402719 -42.075493 -7.560279 0.185540 -13.597765 -17.656755 -1.142715 -6.946047 7.986833 -30.055233 -26.643038 -69.488945 -58.766373 -83.012405 -9.560615 63.977680 -25.103159 -4.781355 -47.347221 24.079901 -0.597632 0.988266 -3.671904 74.057129 -84.967140 116.579704 -12.901479 67.939346 23.169294 -26.835260 -31.358522 -97.971008 33.559639 -21.135532 118.093521 -12.194261 2.128810 33.834568 7.787368 5.588654 -97.925247 -33.594429 21.114815 118.027199 12.172012 -2.113594 34.445236 -7.887251 -5.525526 
0.000000 19.707571 -30.572487 70.992760 0.000000 0.000000 16.221352 -3.721603 -0.489398 3.036042 -13.324574 -2.402904 -42.575726 -7.560386 0.185568 -12.740023 -17.656731 -1.142717 -6.381868 7.661543 -30.537678 -26.156675 -69.988434 -58.536293 -84.542091 -9.772605 63.674664 -25.754902 -4.168556 -47.917675 23.861942 -0.871434 0.483826 -3.487736 73.947571 -84.955681 116.036545 -13.074508 67.797028 22.411781 -26.227394 -31.293686 -97.462433 33.541958 -20.910591 117.686974 -12.293577 2.222187 33.834568 7.787368 5.588654 -97.418594 -33.577999 20.889927 117.623451 12.271310 -2.206299 34.445236 -7.887252 -5.525526 
0.000000 19.765928 -30.445900 70.992760 0.000000 0.000000 15.935639 -3.721789 -0.489309 4.252551 -13.324777 -2.403094 -43.075985 -7.560494 0.185596 -11.882184 -17.656708 -1.142719 -5.820846 7.331546 -31.016552 -25.664289 -70.488602 -58.313213 -86.074409 -9.976607 63.365734 -26.412371 -3.562185 -48.494770 23.641556 -1.143320 -0.021722 -3.304886 73.838036 -84.945625 115.492546 -13.246229 67.652939 21.658823 -25.618729 -31.238083 -96.954048 33.522625 -20.685883 117.280090 -12.392242 2.316318 33.834568 7.787368 5.588654 -96.912094 -33.559910 20.665257 117.219391 12.369971 -2.299757 34.445236 -7.887252 -5.525526 
0.000000 19.824286 -30.319313 70.992760 0.000000 0.000000 15.649920 -3.721974 -0.489219 5.469062 -13.324973 -2.403288 -43.576244 -7.560602 0.185625 -11.024348 -17.656691 -1.142721 -5.263031 6.996930 -31.491800 -25.165453 -70.989456 -58.097721 -87.608757 -10.172392 63.051159 -27.075527 -2.962489 -49.078445 23.418753 -1.413249 -0.528367 -3.123294 73.728516 -84.936890 114.947716 -13.416613 67.507072 20.910299 -25.009468 -31.191607 -96.445869 33.501633 -20.461445 116.872887 -12.490252 2.411200 33.834572 7.787369 5.588655 -96.405785 -33.540161 20.440834 116.815002 12.467985 -2.393960 34.445240 -7.887253 -5.525526 
0.000000 19.882643 -30.192726 70.992760 0.000000 0.000000 15.364210 -3.722159 -0.489129 6.685297 -13.325166 -2.403486 -44.076492 -7.560711 0.185655 -10.166604 -17.656664 -1.142722 -4.708471 6.657782 -31.963366 -24.659575 -71.490799 -57.890327 -89.144547 -10.359742 62.731293 -27.744322 -2.369714 -49.668636 23.193550 -1.681180 -1.036092 -2.942965 73.618965 -84.929443 114.402077 -13.585620 67.359444 20.166075 -24.399799 -31.154095 -95.937950 33.478973 -20.237305 116.465370 -12.587599 2.506829 33.834568 7.787368 5.588654 -95.899727 -33.518772 20.216696 116.410316 12.565347 -2.488904 34.445240 -7.887253 -5.525526 
